<mxfile host="app.diagrams.net" modified="2024-01-08T11:05:12.928Z" agent="Mozilla/5.0 (Windows NT 10.0; Win64; x64; rv:121.0) Gecko/20100101 Firefox/121.0" etag="050jfBUjBFgUikmDI6yD" version="22.1.17" type="device">
  <diagram id="C5RBs43oDa-KdzZeNtuy" name="Page-1">
    <mxGraphModel dx="1050" dy="566" grid="1" gridSize="10" guides="1" tooltips="1" connect="1" arrows="1" fold="1" page="1" pageScale="1" pageWidth="800" pageHeight="500" math="0" shadow="0">
      <root>
        <mxCell id="WIyWlLk6GJQsqaUBKTNV-0" />
        <mxCell id="WIyWlLk6GJQsqaUBKTNV-1" parent="WIyWlLk6GJQsqaUBKTNV-0" />
        <mxCell id="bK_3_RvsG4grgdZg1g7J-0" value="&lt;font style=&quot;font-size: 18px;&quot;&gt;Intermediates&lt;/font&gt;" style="verticalAlign=middle;align=center;spacingTop=8;spacingLeft=2;spacingRight=12;shape=cube;size=10;direction=south;fontStyle=0;html=1;whiteSpace=wrap;fontFamily=Helvetica;fontSize=12;fontColor=default;" vertex="1" parent="WIyWlLk6GJQsqaUBKTNV-1">
          <mxGeometry x="150" y="320" width="210" height="80" as="geometry" />
        </mxCell>
        <mxCell id="bK_3_RvsG4grgdZg1g7J-1" value="&lt;font style=&quot;font-size: 18px;&quot;&gt;Velocity Sources&lt;/font&gt;" style="verticalAlign=middle;align=center;spacingTop=8;spacingLeft=2;spacingRight=12;shape=cube;size=10;direction=south;fontStyle=0;html=1;whiteSpace=wrap;fontFamily=Helvetica;fontSize=12;fontColor=default;" vertex="1" parent="WIyWlLk6GJQsqaUBKTNV-1">
          <mxGeometry x="430" y="320" width="210" height="80" as="geometry" />
        </mxCell>
        <mxCell id="bK_3_RvsG4grgdZg1g7J-2" value="&lt;font style=&quot;font-size: 18px;&quot;&gt;Velocity Aggregates&lt;/font&gt;" style="verticalAlign=middle;align=center;spacingTop=8;spacingLeft=2;spacingRight=12;shape=cube;size=10;direction=south;fontStyle=0;html=1;whiteSpace=wrap;fontFamily=Helvetica;fontSize=12;fontColor=default;" vertex="1" parent="WIyWlLk6GJQsqaUBKTNV-1">
          <mxGeometry x="299" y="40" width="210" height="80" as="geometry" />
        </mxCell>
        <mxCell id="bK_3_RvsG4grgdZg1g7J-3" value="&lt;font style=&quot;font-size: 18px;&quot;&gt;Default Physics of Intermediates&lt;/font&gt;" style="verticalAlign=middle;align=center;spacingTop=8;spacingLeft=2;spacingRight=12;shape=cube;size=10;direction=south;fontStyle=0;html=1;whiteSpace=wrap;fontFamily=Helvetica;fontSize=12;fontColor=default;" vertex="1" parent="WIyWlLk6GJQsqaUBKTNV-1">
          <mxGeometry x="20" y="210" width="210" height="80" as="geometry" />
        </mxCell>
        <mxCell id="bK_3_RvsG4grgdZg1g7J-4" value="&lt;font style=&quot;font-size: 18px;&quot;&gt;Default Physics of Velocity Sources&lt;/font&gt;" style="verticalAlign=middle;align=center;spacingTop=8;spacingLeft=2;spacingRight=12;shape=cube;size=10;direction=south;fontStyle=0;html=1;whiteSpace=wrap;fontFamily=Helvetica;fontSize=12;fontColor=default;" vertex="1" parent="WIyWlLk6GJQsqaUBKTNV-1">
          <mxGeometry x="570" y="210" width="210" height="80" as="geometry" />
        </mxCell>
        <mxCell id="bK_3_RvsG4grgdZg1g7J-6" style="edgeStyle=orthogonalEdgeStyle;shape=connector;rounded=0;orthogonalLoop=1;jettySize=auto;html=1;entryX=0;entryY=0;entryDx=45;entryDy=210;entryPerimeter=0;labelBackgroundColor=default;strokeColor=default;strokeWidth=3;align=center;verticalAlign=middle;fontFamily=Helvetica;fontSize=11;fontColor=default;endArrow=open;endFill=0;endSize=12;exitX=0;exitY=0;exitDx=80;exitDy=110;exitPerimeter=0;" edge="1" parent="WIyWlLk6GJQsqaUBKTNV-1" source="bK_3_RvsG4grgdZg1g7J-3" target="bK_3_RvsG4grgdZg1g7J-0">
          <mxGeometry relative="1" as="geometry">
            <mxPoint x="70" y="340" as="sourcePoint" />
          </mxGeometry>
        </mxCell>
        <mxCell id="bK_3_RvsG4grgdZg1g7J-7" style="edgeStyle=orthogonalEdgeStyle;shape=connector;rounded=0;orthogonalLoop=1;jettySize=auto;html=1;exitX=0;exitY=0;exitDx=80;exitDy=110;exitPerimeter=0;entryX=0;entryY=0;entryDx=35;entryDy=0;entryPerimeter=0;labelBackgroundColor=default;strokeColor=default;strokeWidth=3;align=center;verticalAlign=middle;fontFamily=Helvetica;fontSize=11;fontColor=default;endArrow=open;endFill=0;endSize=12;" edge="1" parent="WIyWlLk6GJQsqaUBKTNV-1" source="bK_3_RvsG4grgdZg1g7J-4" target="bK_3_RvsG4grgdZg1g7J-1">
          <mxGeometry relative="1" as="geometry" />
        </mxCell>
        <mxCell id="bK_3_RvsG4grgdZg1g7J-8" style="edgeStyle=orthogonalEdgeStyle;shape=connector;rounded=0;orthogonalLoop=1;jettySize=auto;html=1;exitX=0;exitY=0;exitDx=80;exitDy=110;exitPerimeter=0;entryX=0;entryY=0;entryDx=0;entryDy=100;entryPerimeter=0;labelBackgroundColor=default;strokeColor=default;strokeWidth=3;align=center;verticalAlign=middle;fontFamily=Helvetica;fontSize=11;fontColor=default;endArrow=open;endFill=0;endSize=12;" edge="1" parent="WIyWlLk6GJQsqaUBKTNV-1" source="bK_3_RvsG4grgdZg1g7J-2" target="bK_3_RvsG4grgdZg1g7J-3">
          <mxGeometry relative="1" as="geometry" />
        </mxCell>
        <mxCell id="bK_3_RvsG4grgdZg1g7J-9" style="edgeStyle=orthogonalEdgeStyle;shape=connector;rounded=0;orthogonalLoop=1;jettySize=auto;html=1;exitX=0;exitY=0;exitDx=80;exitDy=110;exitPerimeter=0;entryX=0;entryY=0;entryDx=0;entryDy=100;entryPerimeter=0;labelBackgroundColor=default;strokeColor=default;strokeWidth=3;align=center;verticalAlign=middle;fontFamily=Helvetica;fontSize=11;fontColor=default;endArrow=open;endFill=0;endSize=12;" edge="1" parent="WIyWlLk6GJQsqaUBKTNV-1" source="bK_3_RvsG4grgdZg1g7J-2" target="bK_3_RvsG4grgdZg1g7J-0">
          <mxGeometry relative="1" as="geometry">
            <Array as="points">
              <mxPoint x="399" y="160" />
              <mxPoint x="260" y="160" />
            </Array>
          </mxGeometry>
        </mxCell>
        <mxCell id="bK_3_RvsG4grgdZg1g7J-10" style="edgeStyle=orthogonalEdgeStyle;shape=connector;rounded=0;orthogonalLoop=1;jettySize=auto;html=1;exitX=0;exitY=0;exitDx=35;exitDy=0;exitPerimeter=0;entryX=0;entryY=0;entryDx=45;entryDy=210;entryPerimeter=0;labelBackgroundColor=default;strokeColor=default;strokeWidth=3;align=center;verticalAlign=middle;fontFamily=Helvetica;fontSize=11;fontColor=default;endArrow=open;endFill=0;endSize=12;" edge="1" parent="WIyWlLk6GJQsqaUBKTNV-1" source="bK_3_RvsG4grgdZg1g7J-0" target="bK_3_RvsG4grgdZg1g7J-1">
          <mxGeometry relative="1" as="geometry" />
        </mxCell>
        <mxCell id="bK_3_RvsG4grgdZg1g7J-11" style="edgeStyle=orthogonalEdgeStyle;shape=connector;rounded=0;orthogonalLoop=1;jettySize=auto;html=1;exitX=0;exitY=0;exitDx=80;exitDy=110;exitPerimeter=0;entryX=0;entryY=0;entryDx=0;entryDy=100;entryPerimeter=0;labelBackgroundColor=default;strokeColor=default;strokeWidth=3;align=center;verticalAlign=middle;fontFamily=Helvetica;fontSize=11;fontColor=default;endArrow=open;endFill=0;endSize=12;" edge="1" parent="WIyWlLk6GJQsqaUBKTNV-1" source="bK_3_RvsG4grgdZg1g7J-2" target="bK_3_RvsG4grgdZg1g7J-1">
          <mxGeometry relative="1" as="geometry">
            <Array as="points">
              <mxPoint x="399" y="160" />
              <mxPoint x="540" y="160" />
            </Array>
          </mxGeometry>
        </mxCell>
        <mxCell id="bK_3_RvsG4grgdZg1g7J-12" style="edgeStyle=orthogonalEdgeStyle;shape=connector;rounded=0;orthogonalLoop=1;jettySize=auto;html=1;exitX=0;exitY=0;exitDx=80;exitDy=110;exitPerimeter=0;entryX=0;entryY=0;entryDx=0;entryDy=100;entryPerimeter=0;labelBackgroundColor=default;strokeColor=default;strokeWidth=3;align=center;verticalAlign=middle;fontFamily=Helvetica;fontSize=11;fontColor=default;endArrow=open;endFill=0;endSize=12;" edge="1" parent="WIyWlLk6GJQsqaUBKTNV-1" source="bK_3_RvsG4grgdZg1g7J-2" target="bK_3_RvsG4grgdZg1g7J-4">
          <mxGeometry relative="1" as="geometry" />
        </mxCell>
        <mxCell id="bK_3_RvsG4grgdZg1g7J-16" value="Physics bodies that use Velocity Aggregates for their velocities" style="verticalAlign=middle;align=center;spacingTop=8;spacingLeft=2;spacingRight=12;shape=cube;size=10;direction=south;fontStyle=0;html=1;whiteSpace=wrap;fontFamily=Helvetica;fontSize=18;fontColor=default;" vertex="1" parent="WIyWlLk6GJQsqaUBKTNV-1">
          <mxGeometry x="20" y="40" width="210" height="80" as="geometry" />
        </mxCell>
        <mxCell id="bK_3_RvsG4grgdZg1g7J-17" style="edgeStyle=orthogonalEdgeStyle;shape=connector;rounded=0;orthogonalLoop=1;jettySize=auto;html=1;exitX=0;exitY=0;exitDx=35;exitDy=0;exitPerimeter=0;entryX=0;entryY=0;entryDx=45;entryDy=210;entryPerimeter=0;labelBackgroundColor=default;strokeColor=default;strokeWidth=3;align=center;verticalAlign=middle;fontFamily=Helvetica;fontSize=11;fontColor=default;endArrow=open;endFill=0;endSize=12;" edge="1" parent="WIyWlLk6GJQsqaUBKTNV-1" source="bK_3_RvsG4grgdZg1g7J-16" target="bK_3_RvsG4grgdZg1g7J-2">
          <mxGeometry relative="1" as="geometry" />
        </mxCell>
        <mxCell id="bK_3_RvsG4grgdZg1g7J-18" value="This is the much-simplified UML diagram for the &quot;velocity sources/aggregate&quot; software design." style="verticalAlign=top;align=left;spacingTop=8;spacingLeft=2;spacingRight=12;shape=cube;size=10;direction=south;fontStyle=0;html=1;whiteSpace=wrap;fontFamily=Helvetica;fontSize=11;fontColor=default;" vertex="1" parent="WIyWlLk6GJQsqaUBKTNV-1">
          <mxGeometry x="570" y="40" width="210" height="60" as="geometry" />
        </mxCell>
      </root>
    </mxGraphModel>
  </diagram>
</mxfile>
